<svg xmlns="http://www.w3.org/2000/svg" width="820" height="380" viewBox="0 0 820 380"><rect width="100%" height="100%" fill="white"/><text x="24" y="24" font-size="18" font-weight="bold" fill="#111827">OLIPOP 品牌评分图</text><text x="24" y="57" font-size="14" fill="#111827">品牌成熟度</text><rect x="180" y="40" width="520" height="24" fill="#E5E7EB" rx="4" /><rect x="180" y="40" width="413.61" height="24" fill="#4F46E5" rx="4" /><text x="716" y="57" font-size="13" fill="#111827">79.54</text><text x="24" y="99" font-size="14" fill="#111827">产品质量</text><rect x="180" y="82" width="520" height="24" fill="#E5E7EB" rx="4" /><rect x="180" y="82" width="420.47" height="24" fill="#059669" rx="4" /><text x="716" y="99" font-size="13" fill="#111827">80.86</text><text x="24" y="141" font-size="14" fill="#111827">市场需求匹配度</text><rect x="180" y="124" width="520" height="24" fill="#E5E7EB" rx="4" /><rect x="180" y="124" width="464.41" height="24" fill="#D97706" rx="4" /><text x="716" y="141" font-size="13" fill="#111827">89.31</text><text x="24" y="183" font-size="14" fill="#111827">创新力</text><rect x="180" y="166" width="520" height="24" fill="#E5E7EB" rx="4" /><rect x="180" y="166" width="396.50" height="24" fill="#DC2626" rx="4" /><text x="716" y="183" font-size="13" fill="#111827">76.25</text><text x="24" y="225" font-size="14" fill="#111827">运营韧性</text><rect x="180" y="208" width="520" height="24" fill="#E5E7EB" rx="4" /><rect x="180" y="208" width="357.29" height="24" fill="#0284C7" rx="4" /><text x="716" y="225" font-size="13" fill="#111827">68.71</text><text x="24" y="267" font-size="14" fill="#111827">性价比</text><rect x="180" y="250" width="520" height="24" fill="#E5E7EB" rx="4" /><rect x="180" y="250" width="418.18" height="24" fill="#7C3AED" rx="4" /><text x="716" y="267" font-size="13" fill="#111827">80.42</text></svg>